<svg width="100%" height="100%" viewBox="0 0 125 110" version="1.1" xmlns="http://www.w3.org/2000/svg" xmlns:xlink="http://www.w3.org/1999/xlink" xml:space="preserve" xmlns:serif="http://www.serif.com/" style="fill-rule:evenodd;fill:white;clip-rule:evenodd;stroke-linejoin:round;stroke-miterlimit:2;"><clipPath id="_clip1"><rect x="0" y="0" width="125" height="109.354"/></clipPath><g clip-path="url(#_clip1)"><path d="M0,95.1l0,-27.412l8.333,-0l0,16.666l8.334,0l-0,-16.666l8.333,-0l0,41.666l-8.333,0l-0,-16.666l-8.334,-0l0,16.666l-8.333,0l0,-14.125c0.008,-0.007 0.015,-0.015 0.021,-0.025c0.017,-0.03 0.008,-0.071 -0.021,-0.104Zm48.096,-10.746l10.237,0l0,8.334l-12.581,-0c-0.032,-0.01 -0.059,-0.011 -0.082,-0l-4.003,-0l-0,8.333l16.666,-0l0,8.333l-25,0l0,-2.272c0.161,0.029 0.313,-0.012 0.378,-0.124c0.068,-0.119 -0.158,-0.481 -0.345,-0.551c-0.009,-0.004 -0.021,-0.009 -0.033,-0.016l0,-38.703l25,-0l0,8.333l-8.038,-0c0.002,-0.026 -0.008,-0.054 -0.025,-0.089c-0.115,-0.23 -0.496,-0.15 -0.625,0.089l-5.581,-0c-0.024,-0.252 -0.236,-0.457 -0.539,-0.38c-0.223,0.056 -0.342,0.2 -0.338,0.38l-1.52,-0l-0,8.333l4.352,0c-0.01,0.079 -0.026,0.163 -0.047,0.254l-0,0c-0.055,0.228 -0.009,0.232 0.573,0.045c0.464,-0.149 0.557,-0.147 0.846,0.02c0.305,0.176 0.635,0.18 0.734,0.008c0.057,-0.098 0.038,-0.217 -0.029,-0.327Zm18.571,-66.961l-0,-12.205l4.166,-5.151l4.167,5.151l-0,6.094c-0.035,0.006 -0.062,0.014 -0.082,0.025c-0.108,0.062 -0.135,0.145 -0.103,0.322l0,-0c0.022,0.12 0.071,0.207 0.185,0.3l-0,72.296c-0.028,0.081 -0.031,0.172 -0,0.267l-0,16.529l16.667,-0l-0,3.684c-0.298,-0.088 -0.83,-0.055 -0.861,0.076c-0.013,0.058 0.097,0.225 0.244,0.371c0.189,0.186 0.425,0.328 0.617,0.387l-0,3.815l-25,0l-0,-34.151c0.191,-0.014 0.374,-0.085 0.45,-0.216c0.135,-0.234 -0.03,-0.364 -0.264,-0.209c-0.041,0.027 -0.109,0.048 -0.186,0.059l-0,-56.598c0.099,0.007 0.212,-0.025 0.323,-0.1c0.233,-0.159 0.261,-0.207 0.318,-0.547c0.088,-0.525 0.136,-0.577 0.515,-0.558c0.279,0.014 0.353,-0.021 0.435,-0.206c0.136,-0.309 -0.121,-0.796 -0.43,-0.818c-0.326,-0.022 -0.521,0.207 -0.491,0.577c0.031,0.389 0.025,0.398 -0.396,0.619c-0.101,0.053 -0.194,0.117 -0.274,0.187Zm42.039,49.798c0.561,-0.064 1.132,-0.096 1.711,-0.096l0.75,0.018c3.833,0.188 7.277,1.809 9.769,4.318c-0.177,0.207 -0.175,0.447 0.011,0.653l-0,0.001c0.239,0.265 0.674,0.447 0.902,0.378c0.005,-0.002 0.009,-0.003 0.014,-0.005c1.964,2.401 3.137,5.433 3.137,8.729l-0,0.008l-0,1.296c-0.185,-0.205 -0.348,-0.232 -0.49,-0.081c-0.186,0.198 -0.186,0.937 -0.001,1.261l-0,-0c0.144,0.252 0.306,0.364 0.491,0.337l-0,11.271l-0.002,0c-0.006,1.078 -0.137,2.127 -0.38,3.135c-0.011,-0.046 -0.033,-0.08 -0.066,-0.099c-0.192,-0.111 -0.677,-0.084 -0.75,0.042c-0.099,0.171 -0.141,0.872 -0.06,0.982c0.206,0.276 0.438,0.212 0.667,-0.184c0.006,-0.01 0.012,-0.02 0.017,-0.03c-1.023,3.419 -3.353,6.305 -6.432,8.119c-0.038,-0.179 -0.067,-0.172 -0.319,-0.19c-0.309,-0.021 -0.454,0.116 -0.447,0.42l0,-0c0.002,0.064 0.014,0.123 0.035,0.173c-2.041,1.052 -4.372,1.649 -6.846,1.649c-1.864,0 -3.647,-0.338 -5.285,-0.955c0.014,-0.11 -0.026,-0.232 -0.122,-0.287c-0.13,-0.076 -0.389,-0.05 -0.531,0.023c-4.597,-1.985 -7.938,-6.202 -8.545,-11.221c0.041,-0.078 0.041,-0.122 -0.016,-0.136c-0.033,-0.299 -0.056,-0.602 -0.07,-0.907c0.094,-0.041 0.199,-0.155 0.301,-0.332c0.091,-0.157 0.078,-0.208 -0.066,-0.264c-0.081,-0.031 -0.17,-0.01 -0.249,0.047l-0,-10.689c0.101,-0.007 0.209,-0.01 0.321,-0.007c0.534,0.012 0.947,-0.153 1.116,-0.444c0.191,-0.331 0.42,-0.339 0.724,-0.025c0.175,0.182 0.295,0.253 0.39,0.234c0.182,-0.038 0.176,-0.104 -0.076,-0.868c-0.176,-0.533 -0.253,-0.659 -0.433,-0.708c-0.282,-0.077 -0.469,-0.019 -0.964,0.302c-0.253,0.165 -0.536,0.262 -0.762,0.263c-0.108,0 -0.211,0.017 -0.316,0.051l-0,-2.178l-0.001,-0.008c0,-7.029 5.337,-12.863 12.304,-13.921c0.026,0.025 0.054,0.055 0.086,0.091c0.243,0.273 0.816,0.598 0.972,0.551c0.072,-0.022 0.098,-0.117 0.072,-0.263c-0.034,-0.187 -0.107,-0.256 -0.409,-0.383c-0.056,-0.023 -0.107,-0.047 -0.152,-0.071Zm-2.587,40.36c0,-0.12 0.311,-0.343 0.404,-0.289c0.036,0.02 0.206,-0.045 0.38,-0.145c0.373,-0.216 0.658,-0.111 0.617,0.226c-0.033,0.273 -0.298,0.518 -0.623,0.575c-0.257,0.045 -0.778,-0.2 -0.778,-0.367l0,0Zm-2.726,-0.743c0.025,-0.043 0.078,-0.06 0.118,-0.036c0.04,0.023 0.052,0.077 0.027,0.12c-0.024,0.043 -0.077,0.059 -0.117,0.036c-0.04,-0.023 -0.053,-0.078 -0.028,-0.12Zm-49.65,-0.117c-0.114,-0.119 -0.07,-0.43 0.073,-0.512c0.136,-0.079 0.498,0.161 0.523,0.348c0.051,0.377 -0.301,0.474 -0.596,0.164l0,0Zm33.317,-0.057c0.034,-0.117 0.078,-0.155 0.121,-0.104c0.083,0.098 -0.008,0.383 -0.105,0.327c-0.038,-0.022 -0.046,-0.123 -0.016,-0.223l-0,-0Zm20.751,-0.25c0.039,-0.068 0.102,-0.087 0.14,-0.043c0.107,0.126 0.033,0.307 -0.096,0.233c-0.063,-0.036 -0.083,-0.122 -0.044,-0.19Zm-0.776,-0.561c-0.032,-0.138 0.052,-0.213 0.166,-0.147c0.06,0.035 0.079,0.116 0.041,0.18c-0.07,0.122 -0.175,0.105 -0.207,-0.033l-0,0Zm-59.368,-0.372c-0.069,-0.236 -0.063,-0.386 0.018,-0.455c0.172,-0.146 0.382,0.007 0.446,0.326c0.116,0.587 -0.297,0.702 -0.464,0.129l-0,-0Zm36.798,-0.968c-0.046,-0.231 -0.029,-0.283 0.122,-0.355c0.251,-0.121 0.447,0.086 0.331,0.348c-0.147,0.333 -0.388,0.337 -0.453,0.007l-0,-0Zm-46.633,-1.019c0.013,-0.073 0.1,-0.169 0.194,-0.214c0.139,-0.067 0.188,-0.049 0.275,0.101c0.087,0.15 0.076,0.203 -0.058,0.292c-0.19,0.126 -0.446,0.014 -0.411,-0.179l0,-0Zm46.353,-0.748c-0.035,-0.214 0.042,-0.302 0.454,-0.518c0.32,-0.168 0.456,-0.1 0.464,0.234c0.006,0.236 -0.013,0.268 -0.236,0.389c-0.208,0.113 -0.521,0.171 -0.619,0.113c-0.017,-0.009 -0.045,-0.107 -0.063,-0.218l-0,0Zm-79.524,-0.125c0.003,-0.04 0.042,-0.123 0.086,-0.184c0.043,-0.061 0.119,-0.168 0.168,-0.238c0.048,-0.07 0.175,-0.127 0.282,-0.126c0.165,-0 0.19,0.038 0.164,0.248c-0.023,0.193 -0.076,0.277 -0.239,0.385c-0.197,0.131 -0.475,0.079 -0.461,-0.084l-0,-0.001Zm105.094,-0.487c-0.11,-0.264 -0.239,-0.503 -0.286,-0.53c-0.143,-0.082 -0.256,-0.644 -0.163,-0.806c0.048,-0.083 0.19,-0.194 0.316,-0.247c0.202,-0.086 0.243,-0.073 0.37,0.115c0.078,0.116 0.127,0.238 0.108,0.27c-0.019,0.033 0.097,0.214 0.258,0.403c0.488,0.573 0.468,1.071 -0.051,1.25c-0.136,0.047 -0.27,0.071 -0.299,0.055c-0.028,-0.017 -0.142,-0.246 -0.253,-0.51l0,-0Zm-56.427,0.039c-0,-0.06 0.301,-0.323 0.669,-0.583c0.776,-0.55 1.036,-0.596 1.389,-0.242c0.204,0.204 0.213,0.255 0.085,0.446c-0.167,0.25 -0.621,0.432 -0.808,0.324c-0.07,-0.041 -0.34,0.014 -0.599,0.122c-0.454,0.189 -0.736,0.164 -0.736,-0.067Zm67.944,-0.405c0.019,-0.313 0.103,-0.391 0.612,-0.567c0.823,-0.285 1.112,0.091 0.577,0.751l-0.301,0.371l-0.337,-0.185c-0.186,-0.103 -0.388,-0.183 -0.45,-0.179c-0.062,0.004 -0.107,-0.082 -0.101,-0.191l0,0Zm-20.517,-0.155c-0.073,-0.128 -0.105,-0.281 -0.071,-0.34c0.086,-0.148 0.713,-0.271 0.884,-0.172c0.301,0.174 0.275,1.009 -0.032,1.032c-0.216,0.016 -0.633,-0.262 -0.781,-0.52l0,-0Zm-80.015,-0.469c-0.028,-0.505 0.302,-0.708 0.599,-0.37c0.094,0.108 0.268,0.291 0.387,0.408c0.271,0.265 0.208,0.466 -0.147,0.471c-0.448,0.008 -0.823,-0.22 -0.839,-0.509l-0,-0Zm94.595,-0.334c0.178,-0.23 0.365,-0.158 0.224,0.087c-0.076,0.131 -0.157,0.178 -0.231,0.135c-0.076,-0.043 -0.074,-0.118 0.007,-0.222l-0,0Zm-47.684,-1.038c-0.256,-0.452 0.042,-0.56 0.882,-0.319c0.423,0.121 0.476,0.157 0.604,0.414c0.077,0.155 0.194,0.313 0.261,0.352c0.165,0.095 0.104,0.355 -0.096,0.416c-0.254,0.077 -1.483,-0.565 -1.651,-0.863l0,0Zm38.033,-19.707c-0.136,0.019 -0.334,0.005 -0.608,-0.036c-0.505,-0.075 -0.69,-0.137 -0.713,-0.237l0,0c-0.046,-0.198 0.017,-0.267 0.398,-0.441c0.276,-0.126 0.364,-0.214 0.45,-0.451c0.137,-0.376 0.394,-0.548 0.622,-0.416c0.14,0.081 0.164,0.195 0.115,0.557c-0.013,0.103 -0.023,0.214 -0.029,0.317c0.727,-1.709 2.468,-2.913 4.498,-2.913c2.683,-0 4.861,2.104 4.861,4.697l-0,14.201l-0.006,-0c-0.055,2.542 -2.21,4.588 -4.855,4.588c-2.646,0 -4.8,-2.046 -4.856,-4.588l-0.005,-0l-0,-14.201l0.025,-0.48c0.021,-0.203 0.056,-0.403 0.103,-0.597Zm-82.42,19.244c-0.054,-0.248 -0.075,-0.492 -0.047,-0.54c0.091,-0.159 0.41,-0.025 0.783,0.328l0.365,0.344l-0.452,0.189c-0.248,0.103 -0.474,0.175 -0.501,0.159c-0.027,-0.015 -0.093,-0.231 -0.148,-0.48l0,0Zm82.162,-0.196c-0.018,-0.129 0.011,-0.189 0.104,-0.218c0.179,-0.054 0.332,0.172 0.212,0.314c-0.137,0.162 -0.288,0.116 -0.317,-0.096l0.001,-0Zm-35.309,-1.089c-0.129,-0.242 0.055,-0.443 0.426,-0.466c0.456,-0.028 0.738,0.142 0.687,0.414c-0.04,0.216 -0.268,0.427 -0.483,0.448c-0.164,0.016 -0.535,-0.217 -0.63,-0.396l-0,-0Zm-36.255,-0.709c0.044,-0.075 0.192,-0.186 0.328,-0.248c0.211,-0.095 0.256,-0.087 0.304,0.058c0.113,0.341 -0.229,0.605 -0.545,0.422c-0.112,-0.064 -0.141,-0.142 -0.087,-0.232l-0,-0Zm33.49,-0.574c-0.114,-0.315 0.034,-0.647 0.288,-0.646c0.179,0.001 0.554,0.426 0.483,0.547c-0.042,0.073 -0.604,0.41 -0.645,0.387c-0.015,-0.009 -0.072,-0.139 -0.126,-0.288l0,-0Zm1.598,-0.182c0.021,-0.035 0.095,-0.096 0.165,-0.135c0.153,-0.086 0.353,0.134 0.228,0.251c-0.096,0.089 -0.453,-0.016 -0.393,-0.116l-0,0Zm-68.116,-0.716c-0.047,-0.056 -0.126,-0.148 -0.174,-0.204c-0.071,-0.083 -0.051,-0.106 0.119,-0.131c0.282,-0.041 0.512,0.109 0.558,0.363c0.02,0.117 0.024,0.236 0.007,0.265c-0.034,0.059 -0.379,-0.139 -0.51,-0.293l0,-0Zm38.672,-1.301c0.001,-0.237 0.572,-0.27 0.795,-0.046c0.219,0.219 0.034,0.494 -0.231,0.343c-0.111,-0.063 -0.283,-0.135 -0.382,-0.16c-0.1,-0.025 -0.182,-0.086 -0.182,-0.137l0,-0Zm33.129,-0.255c0.048,-0.027 0.123,-0.002 0.168,0.056c0.115,0.149 0.072,0.182 -0.104,0.081c-0.082,-0.048 -0.111,-0.109 -0.064,-0.137Zm-1.343,-0.179c-0.041,-0.074 -0.039,-0.196 0.005,-0.272c0.101,-0.174 0.571,-0.308 0.74,-0.211c0.188,0.109 0.434,0.557 0.336,0.614c-0.18,0.104 -1.007,0.004 -1.081,-0.131l-0,0Zm-1.516,-0.466c-0.015,-0.104 0.037,-0.185 0.18,-0.286c0.162,-0.113 0.255,-0.109 0.488,0.026c0.385,0.222 0.312,0.456 -0.151,0.482c-0.389,0.021 -0.49,-0.022 -0.517,-0.222l-0,0Zm-64.704,-0.443c-0.02,-0.147 0,-0.179 0.116,-0.187c0.184,-0.011 0.232,0.1 0.124,0.287c-0.106,0.184 -0.207,0.141 -0.24,-0.1Zm6.959,-1.357c-0.019,-0.337 0.021,-0.372 0.379,-0.335c0.414,0.042 0.415,0.043 0.28,0.277c-0.266,0.461 -0.635,0.494 -0.659,0.058l-0,0Zm42.34,0.152c-0.032,-0.14 0.048,-0.205 0.249,-0.204c0.267,0.001 0.329,0.148 0.122,0.285c-0.163,0.108 -0.336,0.07 -0.371,-0.081l0,-0Zm-38.777,-0.296c0.04,-0.218 0.224,-0.398 0.361,-0.353c0.168,0.056 0.264,0.344 0.183,0.55c-0.054,0.136 -0.116,0.147 -0.318,0.057c-0.17,-0.076 -0.243,-0.159 -0.226,-0.254l0,-0Zm-10.618,0.164c0.023,-0.038 0.152,-0.115 0.287,-0.172c0.205,-0.086 0.253,-0.076 0.284,0.055c0.03,0.132 -0.008,0.168 -0.222,0.21c-0.278,0.055 -0.413,0.019 -0.349,-0.093l0,0Zm90.908,-0.468c-0.065,-0.408 0.095,-0.823 0.455,-1.177c0.373,-0.367 0.948,-0.577 1.13,-0.413c0.095,0.086 0.076,0.177 -0.095,0.465c-0.171,0.289 -0.289,0.387 -0.608,0.508c-0.458,0.173 -0.456,0.17 -0.526,0.627c-0.049,0.326 -0.061,0.342 -0.188,0.269c-0.074,-0.043 -0.15,-0.169 -0.168,-0.279l0,-0Zm-88.339,0.099c0.109,-0.034 0.208,-0.021 0.22,0.028c0.011,0.05 -0.047,0.095 -0.129,0.101c-0.246,0.017 -0.304,-0.064 -0.091,-0.129Zm45.309,-0.514c-0.066,-0.285 0.135,-0.675 0.373,-0.724c0.135,-0.028 0.219,0.02 0.421,0.237c0.138,0.15 0.319,0.345 0.402,0.433c0.107,0.114 0.119,0.214 0.041,0.349c-0.091,0.157 -0.186,0.178 -0.554,0.12c-0.562,-0.089 -0.615,-0.121 -0.683,-0.415l-0,0Zm20.553,0.211c0.025,-0.043 0.094,-0.049 0.154,-0.015c0.06,0.035 0.089,0.098 0.064,0.141c-0.024,0.043 -0.094,0.05 -0.154,0.015c-0.06,-0.034 -0.089,-0.098 -0.064,-0.141Zm-69.275,-0.559c0.013,-0.216 0.235,-0.485 0.346,-0.421c0.094,0.055 0.039,0.633 -0.066,0.694c-0.147,0.085 -0.293,-0.057 -0.28,-0.273l0,0Zm67.52,-0.196c0.22,-0.035 0.292,0.032 0.133,0.124c-0.052,0.031 -0.15,0.023 -0.217,-0.018c-0.107,-0.064 -0.097,-0.077 0.084,-0.106l-0,-0Zm-23.256,-0.434c-0.108,-0.144 -0.002,-0.244 0.159,-0.151c0.081,0.047 0.116,0.136 0.078,0.201c-0.069,0.121 -0.119,0.11 -0.237,-0.05Zm-43.687,-0.717c0.007,-0.12 0.124,-0.45 0.261,-0.733c0.22,-0.456 0.263,-0.507 0.378,-0.44c0.072,0.041 0.172,0.275 0.223,0.519c0.052,0.244 0.134,0.524 0.185,0.622c0.087,0.171 0.074,0.183 -0.341,0.298c-0.494,0.137 -0.726,0.05 -0.706,-0.266l-0,0Zm98.224,-0.143c-0.013,-0.093 0.048,-0.33 0.136,-0.527c0.144,-0.323 0.193,-0.365 0.512,-0.433c0.401,-0.085 0.603,-0.004 0.666,0.269c0.056,0.245 0.072,0.226 -0.492,0.581c-0.638,0.401 -0.78,0.42 -0.822,0.11l-0,0Zm-95.069,-0.231c-0.031,-0.228 0.538,-1.385 0.686,-1.394c0.138,-0.008 0.372,0.815 0.308,1.081c-0.052,0.217 -0.75,0.579 -0.928,0.483c-0.026,-0.014 -0.056,-0.091 -0.066,-0.17l-0,0Zm37.778,-1.019c0.312,-0.391 0.393,-0.377 0.688,0.119c0.197,0.331 0.224,0.43 0.104,0.386c-0.088,-0.032 -0.313,-0.079 -0.499,-0.104c-0.503,-0.069 -0.529,-0.105 -0.293,-0.401Zm-29.015,-0.908c0.113,-0.197 0.292,-0.309 0.396,-0.249c0.124,0.072 -0.009,0.324 -0.202,0.383c-0.19,0.058 -0.272,0.001 -0.194,-0.134l-0,-0Zm53.941,-1.593c-0.081,-0.161 -0.12,-0.339 -0.087,-0.396c0.033,-0.057 0.289,-0.156 0.569,-0.219c0.487,-0.11 0.515,-0.13 0.652,-0.465c0.184,-0.448 0.478,-0.524 0.778,-0.201c0.105,0.112 0.402,0.297 0.662,0.411c0.4,0.176 0.467,0.232 0.443,0.368c-0.042,0.226 -0.287,0.363 -0.594,0.33c-0.24,-0.025 -0.299,0.017 -0.631,0.455c-0.31,0.409 -0.402,0.481 -0.604,0.475c-0.377,-0.011 -1.017,-0.42 -1.188,-0.758l-0,-0Zm-50.609,-0.197c-0.255,-0.265 -0.288,-0.457 -0.128,-0.734c0.094,-0.163 0.24,-0.276 0.418,-0.325c0.232,-0.063 0.329,-0.034 0.641,0.187c0.271,0.192 0.376,0.326 0.399,0.508c0.035,0.288 -0.157,0.665 -0.361,0.708c-0.227,0.046 -0.783,-0.151 -0.969,-0.344l0,0Zm103.912,-0.969c-0.015,-0.063 -0.136,-0.191 -0.268,-0.286c-0.162,-0.116 -0.222,-0.22 -0.185,-0.322c0.036,-0.099 0.1,-0.124 0.187,-0.073c0.233,0.137 0.591,0.628 0.532,0.73c-0.073,0.126 -0.231,0.098 -0.266,-0.049l-0,-0Zm-22.993,-0.401c-0.076,-0.329 0.286,-0.482 0.761,-0.32c0.417,0.141 0.375,0.307 -0.114,0.457c-0.433,0.132 -0.593,0.099 -0.647,-0.137l0,0Zm19.907,-0.135c0.073,-0.07 0.144,-0.252 0.156,-0.405c0.037,-0.433 0.36,-0.636 0.535,-0.336c0.106,0.183 -0.004,0.397 -0.267,0.518c-0.106,0.049 -0.241,0.168 -0.298,0.264c-0.057,0.096 -0.138,0.154 -0.181,0.13c-0.044,-0.026 -0.02,-0.1 0.055,-0.172l0,0.001Zm-101.514,-0.445c0.112,-0.194 0.548,-0.191 0.593,0.004c0.021,0.092 -0.042,0.151 -0.218,0.204c-0.314,0.096 -0.493,-0.003 -0.375,-0.208l0,0Zm97.626,0.036c0.087,-0.149 0.312,-0.196 0.4,-0.083c0.103,0.135 -0.007,0.305 -0.182,0.281c-0.219,-0.029 -0.282,-0.086 -0.218,-0.198l0,0Zm-17.249,-0.613c0.017,-0.097 0.071,-0.115 0.169,-0.059c0.079,0.046 0.113,0.135 0.075,0.2c-0.037,0.064 -0.113,0.091 -0.169,0.058c-0.055,-0.032 -0.089,-0.122 -0.075,-0.199Zm-98.6,-0.055c0.05,-0.029 0.136,-0.026 0.191,0.006c0.055,0.032 0.101,0.105 0.101,0.162c-0,0.059 -0.083,0.056 -0.191,-0.006c-0.109,-0.063 -0.152,-0.133 -0.101,-0.162Zm1.513,-0.309c-0.231,-0.268 -0.199,-0.351 0.093,-0.246c0.122,0.044 0.279,0.094 0.349,0.112c0.087,0.021 0.093,0.091 0.018,0.22c-0.129,0.223 -0.207,0.208 -0.46,-0.086l-0,0Zm98.804,-0.332c-0.136,-0.12 -0.167,-0.387 -0.05,-0.423c0.085,-0.026 0.5,0.522 0.476,0.628c-0.023,0.102 -0.148,0.042 -0.426,-0.205l-0,-0Zm19.746,0.018c-0.045,-0.086 -0.147,-0.212 -0.226,-0.281c-0.189,-0.166 -0.266,-0.672 -0.136,-0.897c0.106,-0.183 0.455,-0.32 0.601,-0.236c0.097,0.056 0.389,0.663 0.462,0.959c0.058,0.234 -0.043,0.451 -0.282,0.609c-0.181,0.119 -0.296,0.077 -0.419,-0.154l-0,-0Zm-18.016,-1.676c-0.043,-0.187 0.018,-0.277 0.142,-0.205c0.115,0.066 0.092,0.332 -0.029,0.34c-0.044,0.003 -0.095,-0.058 -0.113,-0.135l0,0Zm-98.148,-2.718c-0.244,-0.393 -0.088,-0.6 0.36,-0.48c0.194,0.051 0.391,0.081 0.439,0.066c0.153,-0.048 0.34,0.112 0.312,0.266c-0.042,0.233 -0.229,0.517 -0.344,0.524c-0.322,0.02 -0.608,-0.12 -0.767,-0.376l-0,-0Zm95.226,-0.118c-0.099,-0.169 -0.186,-0.327 -0.193,-0.352c-0.022,-0.079 0.801,0.009 0.969,0.103c0.088,0.05 0.166,0.195 0.173,0.322c0.03,0.536 -0.622,0.486 -0.949,-0.073l-0,0Zm-65.747,-0.924c-0.215,-0.673 -0.013,-1.207 0.424,-1.12c0.142,0.028 0.212,0.133 0.284,0.426c0.106,0.425 0.027,0.758 -0.233,0.979c-0.214,0.182 -0.353,0.099 -0.476,-0.285l0.001,-0Zm77.897,-0.571c0,-0.061 0.097,-0.146 0.215,-0.189c0.268,-0.096 0.887,0.22 0.782,0.401c-0.153,0.265 -0.997,0.086 -0.997,-0.212l0,-0Zm-92.405,-0.373c-0.29,-0.428 -0.185,-0.617 0.347,-0.627c0.33,-0.006 0.425,0.026 0.528,0.179c0.149,0.221 -0.011,0.565 -0.34,0.731c-0.257,0.13 -0.256,0.131 -0.535,-0.282l-0,-0.001Zm23.395,-3.375c-0.082,-0.355 0.434,-0.73 0.545,-0.396c0.076,0.231 -0.013,0.505 -0.187,0.577c-0.187,0.076 -0.314,0.012 -0.358,-0.18l-0,-0.001Zm12.987,-1.261c-0.071,-0.178 -0.063,-0.194 0.167,-0.319c0.379,-0.206 0.848,-0.01 0.678,0.285c-0.071,0.123 -0.604,0.317 -0.708,0.256c-0.034,-0.019 -0.096,-0.12 -0.137,-0.222l0,-0Zm55.683,-0.29c0,-0.173 0.255,-0.225 0.293,-0.059c0.032,0.138 -0.116,0.275 -0.229,0.21c-0.035,-0.021 -0.064,-0.088 -0.064,-0.151l0,0Zm-89.754,-1.495c-0.26,-0.455 -0.007,-0.713 0.411,-0.42c0.221,0.155 0.255,0.224 0.189,0.382c-0.075,0.182 -0.331,0.355 -0.429,0.289c-0.024,-0.016 -0.101,-0.129 -0.171,-0.251l0,-0Zm45.523,-1.046c-0.048,-0.093 -0.219,-0.214 -0.392,-0.278c-0.429,-0.158 -0.399,-0.338 0.073,-0.441c0.36,-0.079 0.404,-0.066 0.825,0.239c0.546,0.397 0.583,0.51 0.224,0.679c-0.297,0.141 -0.595,0.059 -0.73,-0.199l0,-0Zm-44.178,-0.253c0.072,-0.124 0.476,-0.199 0.622,-0.115c0.118,0.068 -0.023,0.321 -0.211,0.378c-0.199,0.061 -0.49,-0.125 -0.411,-0.263l0,0Zm44.111,-4.793c0.059,-0.208 0.079,-0.625 0.044,-0.927c-0.057,-0.495 -0.044,-0.558 0.13,-0.655c0.106,-0.059 0.38,-0.222 0.608,-0.362c0.235,-0.144 0.466,-0.223 0.534,-0.183c0.065,0.04 0.2,0.235 0.299,0.433c0.24,0.48 0.364,0.534 0.723,0.317c0.166,-0.101 0.446,-0.181 0.622,-0.178c0.175,0.003 0.385,-0.026 0.466,-0.065c0.081,-0.039 0.171,-0.024 0.199,0.033c0.095,0.191 -0.116,0.401 -0.532,0.528c-0.42,0.128 -0.593,0.308 -0.613,0.637c-0.017,0.284 -0.469,0.44 -0.925,0.318c-0.392,-0.104 -0.613,-0.004 -0.834,0.379c-0.126,0.217 -0.463,0.314 -0.673,0.193c-0.121,-0.07 -0.132,-0.173 -0.048,-0.468l0,-0Zm-67.685,-9.462l0,-15.082l4.167,-5.15l4.166,5.15l0,13.01c-0.159,0.011 -0.32,0.073 -0.378,0.173c-0.047,0.083 -0.05,0.219 -0.005,0.303l-0,0c0.105,0.198 0.203,0.255 0.383,0.214l0,11.3l-8.333,-0l0,-9.596c0.017,0.046 0.04,0.094 0.069,0.145c0.19,0.332 0.28,0.307 0.498,-0.135c0.298,-0.606 0.274,-0.69 -0.162,-0.584c-0.211,0.052 -0.346,0.137 -0.405,0.252Zm100,-5.844l-0,-9.238l4.167,-5.15l4.166,5.15l0,4.577c-0.614,-0.655 -0.779,-0.443 -0.382,0.505l-0,-0c0.078,0.187 0.146,0.346 0.151,0.353c0.004,0.008 0.072,0.023 0.151,0.033c0.025,0.004 0.053,-0.001 0.08,-0.013l0,19.545l-8.333,-0l-0,-0.057c0.101,0.008 0.258,-0.045 0.499,-0.162c0.658,-0.318 0.726,-0.389 0.749,-0.776c0.014,-0.245 -0.027,-0.368 -0.136,-0.409c-0.171,-0.065 -0.205,-0.048 -0.835,0.426c-0.115,0.085 -0.206,0.165 -0.277,0.24l-0,-14.37c0.312,-0.017 0.405,-0.116 0.352,-0.343c-0.032,-0.14 -0.114,-0.214 -0.352,-0.311Zm-66.667,5.025l0,-22.596l4.167,-5.151l4.167,5.151l-0,0.24c-0.064,0.093 -0.13,0.187 -0.184,0.259c-0.106,0.139 -0.219,0.343 -0.253,0.452l-0,-0c-0.034,0.109 -0.048,0.206 -0.032,0.215c0.111,0.065 0.323,0.039 0.372,-0.045c0.012,-0.021 0.047,-0.059 0.097,-0.106l-0,9.991c-0.184,-0.047 -0.376,-0.068 -0.548,-0.052c-0.689,0.064 -0.687,0.056 -0.265,1.393l0,0c0.055,0.174 0.153,0.323 0.218,0.331c0.065,0.009 0.3,-0.141 0.523,-0.333c0.023,-0.02 0.047,-0.04 0.072,-0.061l-0,21.049l-8.334,-0l0,-9.93c0.402,-0.12 0.57,-0.691 0.217,-0.828c-0.065,-0.025 -0.141,-0.014 -0.217,0.021Zm83.334,-6.149l-0,-16.447l4.166,-5.151l4.167,5.151l-0,12.971c-0.176,0.096 -0.326,0.29 -0.315,0.492l-0,-0c0.011,0.198 0.061,0.253 0.307,0.337l0.008,0.003l-0,19.53l-8.333,-0l-0,-15.731c0.079,0.317 0.258,0.149 0.842,-0.656c0.321,-0.443 0.398,-0.881 0.191,-1.092c-0.103,-0.106 -0.18,-0.092 -0.385,0.073c-0.141,0.112 -0.294,0.269 -0.339,0.348c-0.077,0.133 -0.158,0.195 -0.309,0.172Zm-33.334,-12.884l0,-11.897l4.167,-5.15l4.167,5.15l-0,14.456c-0.086,-0.002 -0.199,0.017 -0.349,0.053c-0.398,0.093 -0.524,0.265 -0.337,0.457l-0,0c0.236,0.244 0.495,0.336 0.686,0.297l-0,9.388c-0.397,0.111 -0.685,0.624 -0.454,0.916c0.136,0.174 0.251,0.211 0.454,0.099l-0,16.001l-8.334,-0l0,-29.178c0.044,-0.008 0.09,-0.025 0.136,-0.053c0.129,-0.075 0.146,-0.133 0.086,-0.289c-0.029,-0.071 -0.116,-0.164 -0.222,-0.25Zm-29.39,-21.921c0.006,0.059 0.015,0.126 0.028,0.203l-0,-0c0.091,0.554 0.355,0.688 0.782,0.397c0.029,-0.019 0.054,-0.038 0.078,-0.056l3.502,4.33l0,46.817l-8.333,-0l-0,-46.817l3.943,-4.874Zm-37.276,40.615l-0,-5.591l4.166,-5.15l4.167,5.15l0,16.667l-4.76,-0c-0.004,-0.038 -0.011,-0.083 -0.02,-0.138c-0.027,-0.167 -0.067,-0.346 -0.088,-0.397c-0.062,-0.154 -0.344,-0.108 -0.633,0.103c-0.148,0.108 -0.345,0.213 -0.437,0.232c-0.092,0.018 -0.196,0.082 -0.23,0.142l0,-0c-0.011,0.018 -0.014,0.037 -0.01,0.058l-2.155,-0l-0,-10.557c0.089,0.352 0.26,0.445 0.538,0.294c0.324,-0.177 0.959,-1.485 0.772,-1.593c-0.166,-0.096 -0.427,0.012 -0.879,0.364c-0.236,0.184 -0.368,0.299 -0.431,0.416Zm20.314,10.271c-0.156,-0.281 0.26,-0.663 0.713,-0.655c0.311,0.005 0.788,0.245 0.788,0.396c0,0.168 -0.518,0.684 -0.715,0.712c-0.203,0.029 -0.667,-0.239 -0.786,-0.453l-0,-0Zm80.848,-1.255c0.052,-0.09 0.435,-0.181 0.53,-0.127c0.144,0.083 0.129,0.34 -0.022,0.386c-0.158,0.048 -0.566,-0.159 -0.508,-0.259l-0,-0Zm5.974,-0.597c0.141,-0.244 0.493,-0.461 0.493,-0.304c-0,0.053 -0.092,0.203 -0.204,0.333c-0.26,0.301 -0.467,0.281 -0.289,-0.029l0,0Zm-72.176,-0.497c0,-0.061 0.03,-0.12 0.066,-0.131c0.097,-0.029 0.244,0.19 0.19,0.283c-0.061,0.106 -0.256,-0.01 -0.256,-0.152l0,0Zm-46.487,-2.142c-0.017,-0.111 0.015,-0.244 0.072,-0.297c0.176,-0.164 0.717,-0.315 0.851,-0.237c0.282,0.163 -0.106,0.75 -0.52,0.787c-0.309,0.027 -0.363,-0.007 -0.403,-0.254l0,0.001Zm49.997,-0.716c-0.084,-0.473 -0.031,-0.675 0.214,-0.812c0.116,-0.065 0.148,-0.024 0.203,0.256c0.049,0.252 0.117,0.351 0.277,0.404c0.222,0.074 0.413,0.316 0.344,0.436c-0.079,0.138 -0.697,0.33 -0.824,0.256c-0.072,-0.041 -0.168,-0.284 -0.214,-0.54l-0,0Zm-48.432,-0.048c-0.068,-0.143 0.044,-0.831 0.144,-0.888c0.145,-0.084 0.615,0.257 0.765,0.555c0.262,0.517 -0.14,0.859 -0.655,0.558c-0.112,-0.066 -0.227,-0.167 -0.254,-0.225l-0,0Zm-2.377,-0.221c0.025,-0.134 0.039,-0.138 0.066,-0.02c0.02,0.081 0.006,0.157 -0.031,0.168c-0.036,0.012 -0.052,-0.055 -0.035,-0.148Zm16.164,-0.781c-0.008,-0.036 -0.217,-0.185 -0.465,-0.329c-0.412,-0.241 -0.443,-0.279 -0.371,-0.454c0.073,-0.176 0.103,-0.175 0.377,0.009c0.287,0.194 0.313,0.192 0.822,-0.063c1.185,-0.596 1.501,-0.606 1.701,-0.053c0.085,0.235 0.068,0.327 -0.108,0.589c-0.188,0.28 -0.237,0.304 -0.511,0.251c-0.192,-0.036 -0.424,0.011 -0.634,0.129c-0.182,0.103 -0.356,0.176 -0.388,0.162c-0.031,-0.013 -0.136,-0.058 -0.232,-0.099c-0.097,-0.042 -0.182,-0.105 -0.191,-0.142l0,0Zm66.885,0.005c0,-0.158 0.302,-0.484 0.459,-0.496c0.201,-0.015 0.234,0.045 0.126,0.227c-0.136,0.232 -0.585,0.438 -0.585,0.269l0,-0Zm1.304,-0.501c0.053,-0.092 0.442,-0.1 0.462,-0.01c0.009,0.036 -0.035,0.108 -0.097,0.16c-0.122,0.104 -0.437,-0.026 -0.365,-0.15l-0,-0Zm-52.731,-1.438c-0.329,-0.304 -0.244,-0.474 0.247,-0.491c0.267,-0.01 0.353,0.024 0.456,0.177c0.149,0.221 0.04,0.462 -0.236,0.523c-0.151,0.033 -0.254,-0.013 -0.467,-0.209l-0,-0Zm48.82,-0.632c0,-0.136 0.438,-0.251 0.6,-0.157c0.146,0.084 0.082,0.332 -0.105,0.408c-0.187,0.077 -0.495,-0.08 -0.495,-0.251l0,-0Zm-77.857,-0.776c-0.039,-0.168 0.149,-0.365 0.278,-0.291c0.171,0.099 0.219,0.323 0.092,0.431c-0.104,0.088 -0.338,-0 -0.37,-0.14l0,-0Zm61.361,-1.034c-0.107,-0.297 -0.037,-0.538 0.13,-0.442c0.055,0.032 0.138,0.165 0.183,0.296c0.062,0.18 0.046,0.26 -0.065,0.331c-0.137,0.086 -0.155,0.073 -0.248,-0.185l0,0Zm2.997,-2.37c-0.264,-0.401 -0.304,-0.813 -0.09,-0.937c0.062,-0.036 0.359,0.017 0.659,0.118c0.518,0.175 0.549,0.197 0.594,0.427c0.066,0.342 -0.107,0.916 -0.3,0.995c-0.22,0.09 -0.567,-0.152 -0.863,-0.603l-0,0Zm47.268,-0.664c0.024,-0.103 -0.006,-0.366 -0.067,-0.585c-0.174,-0.618 -0.147,-0.705 0.346,-1.122c0.447,-0.379 0.617,-0.391 0.469,-0.033c-0.179,0.435 0.041,0.679 0.639,0.711c0.246,0.013 0.334,0.051 0.358,0.155c0.024,0.105 -0.058,0.162 -0.335,0.233l-0.367,0.094l-0.134,0.798l-0.318,0.06c-0.398,0.074 -0.652,-0.059 -0.591,-0.311l-0,0Zm-78.755,-0.567c-0.097,-0.21 -0.126,-0.411 -0.073,-0.504c0.104,-0.18 0.149,-0.158 0.611,0.288c0.372,0.36 0.387,0.629 0.037,0.678c-0.266,0.038 -0.388,-0.059 -0.575,-0.462l0,-0Zm46.314,-0.563c-0,-0.125 0.19,-0.138 0.25,-0.018c0.05,0.101 -0.084,0.211 -0.186,0.152c-0.035,-0.021 -0.064,-0.081 -0.064,-0.134Zm-35.495,-1.278c0.141,-0.131 0.532,-0.074 0.772,0.112c0.275,0.214 0.302,0.294 0.119,0.35c-0.195,0.06 -1.003,-0.359 -0.891,-0.462l-0,0Zm-32.408,-1.086c-0.097,-0.419 -0.027,-0.568 0.307,-0.658c0.314,-0.084 0.698,0.043 0.971,0.319c0.187,0.19 0.194,0.247 0.063,0.521c-0.23,0.48 -0.523,0.594 -0.928,0.361c-0.269,-0.156 -0.347,-0.258 -0.413,-0.543l0,0Zm1.918,-0.072c0.131,-0.121 0.37,-0.011 0.287,0.133c-0.042,0.072 -0.133,0.087 -0.222,0.035c-0.089,-0.051 -0.116,-0.121 -0.065,-0.168l-0,0Zm35.305,-0.117c-0.045,-0.434 0.173,-0.602 0.519,-0.403c0.232,0.135 0.231,0.32 -0.004,0.571c-0.174,0.185 -0.49,0.082 -0.515,-0.168l-0,-0Zm-48.934,-0.956c-0.157,-0.212 -0.179,-0.494 -0.048,-0.605c0.062,-0.053 0.27,-0.102 0.463,-0.11c0.449,-0.018 0.631,-0.213 0.661,-0.706c0.049,-0.816 0.54,-0.434 0.567,0.44c0.01,0.321 0.036,0.619 0.058,0.664c0.113,0.225 -0.193,0.422 -0.782,0.505c-0.634,0.089 -0.728,0.069 -0.919,-0.188l0,0Zm114.155,-0.144c-0.039,-0.167 0.153,-0.362 0.459,-0.467c0.174,-0.06 0.415,-0.161 0.535,-0.226c0.413,-0.221 0.899,-0.008 0.713,0.313c-0.049,0.085 -0.328,0.293 -0.62,0.463c-0.493,0.285 -0.551,0.296 -0.8,0.152c-0.148,-0.085 -0.277,-0.191 -0.287,-0.235l-0,-0Zm-83.06,-1.979c-0.079,-0.163 0.58,-0.787 0.83,-0.786c0.281,0 0.311,0.056 0.223,0.408c-0.146,0.587 -0.833,0.834 -1.053,0.378l-0,0Zm52.867,-0.603c-0.001,-0.175 0.028,-0.206 0.192,-0.205c0.136,0 0.221,0.049 0.29,0.168c0.112,0.193 0.086,0.269 -0.113,0.33c-0.21,0.064 -0.368,-0.061 -0.369,-0.293l-0,-0Zm-50.839,-0.39c0.06,-0.072 0.19,-0.097 0.293,-0.057c0.143,0.056 0.16,0.101 0.076,0.201c-0.06,0.071 -0.19,0.096 -0.292,0.056c-0.143,-0.056 -0.16,-0.101 -0.077,-0.2Zm13.79,-0.252c-0.009,-0.039 -0.126,-0.15 -0.259,-0.246c-0.32,-0.229 -0.358,-0.323 -0.227,-0.549c0.12,-0.21 0.555,-0.251 0.841,-0.08c0.186,0.111 0.342,0.5 0.276,0.686c-0.12,0.335 -0.566,0.468 -0.631,0.189l0,-0Zm66.288,-1.874c-0.067,-0.166 -0.05,-0.206 0.164,-0.378c0.182,-0.147 0.247,-0.251 0.269,-0.431c0.051,-0.423 0.345,-0.507 0.665,-0.189c0.115,0.114 0.119,0.244 0.019,0.59c-0.219,0.753 -0.229,0.76 -0.864,0.63c-0.1,-0.02 -0.211,-0.118 -0.253,-0.222l-0,0Zm-0.856,-1.263c0.057,-0.067 0.168,-0.085 0.247,-0.039c0.079,0.045 0.119,0.15 0.089,0.233c-0.04,0.113 -0.102,0.123 -0.247,0.04c-0.144,-0.084 -0.166,-0.142 -0.089,-0.234Zm2.924,-0.165c0.015,-0.079 0.144,-0.298 0.287,-0.488c0.223,-0.296 0.256,-0.397 0.23,-0.72c-0.04,-0.508 0.104,-1.069 0.277,-1.079c0.17,-0.011 1.018,0.362 1.116,0.49c0.052,0.067 -0.02,0.305 -0.219,0.722l-0.297,0.622l-0.384,0.099c-0.212,0.055 -0.471,0.197 -0.577,0.317c-0.213,0.239 -0.473,0.262 -0.433,0.037l0,0Zm-81.794,-0.236c-0.179,-0.24 -0.071,-0.347 0.519,-0.512c0.439,-0.124 0.534,-0.122 0.579,0.013c0.159,0.48 -0.087,0.82 -0.558,0.772c-0.351,-0.036 -0.372,-0.047 -0.54,-0.273l-0,0Zm-37.247,-1.835c0.095,-0.566 0.185,-0.662 0.717,-0.768c0.567,-0.113 0.629,-0.091 0.647,0.228c0.019,0.352 -0.152,0.587 -0.447,0.614c-0.141,0.012 -0.378,0.111 -0.526,0.219c-0.354,0.259 -0.469,0.173 -0.391,-0.293l0,0Zm114.789,-5.646c-0.007,-0.137 0.011,-0.291 0.04,-0.343c0.124,-0.214 1.363,-0.26 2.035,-0.075c0.279,0.077 0.404,0.768 0.18,0.993c-0.131,0.132 -1.062,0.091 -1.493,-0.067c-0.176,-0.064 -0.417,-0.149 -0.534,-0.188c-0.16,-0.053 -0.218,-0.134 -0.228,-0.32l0,-0Zm-50.279,-6.999c0.074,-0.127 0.387,-0.091 0.459,0.052c0.068,0.137 -0.215,0.238 -0.387,0.139c-0.075,-0.044 -0.107,-0.129 -0.072,-0.191l0,0Zm17.32,-0.217c-0.049,-0.114 -0.067,-0.244 -0.041,-0.289c0.026,-0.045 0.384,-0.182 0.795,-0.305c0.959,-0.285 1.51,-0.157 1.252,0.29c-0.115,0.199 -1.16,0.535 -1.621,0.521c-0.264,-0.008 -0.306,-0.031 -0.385,-0.217l0,0Zm-29.983,-1.22c-0.048,-0.099 0.008,-0.254 0.207,-0.573c0.282,-0.452 0.533,-0.613 0.672,-0.432c0.114,0.149 0.126,0.779 0.018,0.966c-0.165,0.286 -0.763,0.312 -0.897,0.039Zm19.05,-1.514c-0.102,-0.158 -0.064,-0.43 0.05,-0.364c0.105,0.061 0.39,0.57 0.353,0.632c-0.053,0.092 -0.261,-0.045 -0.403,-0.268l-0,0Zm-23.412,-1.938c-0.002,-0.238 -0.04,-0.48 -0.084,-0.537c-0.045,-0.058 -0.051,-0.158 -0.013,-0.223c0.052,-0.091 0.114,-0.075 0.274,0.071c0.114,0.104 0.34,0.298 0.503,0.432c0.271,0.223 0.286,0.266 0.179,0.497c-0.129,0.28 -0.29,0.344 -0.63,0.253c-0.198,-0.052 -0.225,-0.112 -0.229,-0.493l0,0Zm20.569,-9.15c-0.031,-0.132 -0.018,-0.306 0.028,-0.386c0.046,-0.08 0.07,-0.277 0.052,-0.437c-0.038,-0.351 0.077,-0.439 0.359,-0.276c0.286,0.165 0.451,0.395 0.551,0.77c0.091,0.337 -0.061,0.726 -0.313,0.803c-0.224,0.069 -0.615,-0.205 -0.677,-0.474l-0,-0Zm1.437,-0.136c0.031,-0.055 0.161,-0.152 0.287,-0.216c0.218,-0.11 0.228,-0.107 0.195,0.063c-0.022,0.111 -0.109,0.207 -0.226,0.252c-0.225,0.085 -0.337,0.041 -0.256,-0.099l-0,0Zm0.453,-1.163c-0.02,-0.329 0.063,-0.487 0.211,-0.402c0.134,0.078 0.108,0.274 -0.066,0.501l-0.129,0.167l-0.016,-0.266Zm-2.422,-0.681c-0.046,-0.088 -0.028,-0.246 0.044,-0.369c0.086,-0.15 0.088,-0.338 0.006,-0.615c-0.065,-0.219 -0.08,-0.435 -0.033,-0.48c0.047,-0.045 0.247,-0.076 0.445,-0.069c0.439,0.015 0.614,0.221 0.61,0.718c-0.002,0.298 -0.025,0.346 -0.233,0.487c-0.127,0.086 -0.292,0.264 -0.368,0.395c-0.147,0.255 -0.312,0.231 -0.471,-0.067l0,-0Z"/></g></svg>